<svg width="467" height="709" viewBox="0 0 467 709" fill="none" xmlns="http://www.w3.org/2000/svg">
<path d="M36 709L24.5 647L23 620.5L24.5 594.5L25.5 569L23 534M23 534L1 523.5L11.5 477.5L15 442L17.5 411L27 357L31 334.5L39.5 309L58 283.5L83.5 263.5L118 242L152 225.5M23 534L49.5 537L47.5 439.5L84 704.5M152 225.5L163.5 227.5H190.5H224L251 219.5L271.5 216.5L265 213L244.5 209.5L215 210.5L164.5 217.5L152 225.5ZM152 225.5L164.5 210.5L167.5 199.5L163.5 192M271.5 58V55L270.5 47L262.5 26L256 12L246.5 4.5L228 1H209L185 6L167.5 12L151.5 22L129.5 37.5L118 56L120 83L118 104.5L123 125L129.5 138L136 148L144.5 160.5L159.5 184.5L163.5 192M271.5 58L281.5 68L293 88.5L295.5 96L299 100.5M271.5 58V78L262.5 110L252 111.5L242.91 91.427M299 100.5L296.5 99.9304M299 100.5L296.5 108.5L295.5 114.5L293 120.5L293.371 121.688M224.5 118.5L220.5 108.5V98.5V91.5L224.5 85L232.5 83L242.91 91.427M224.5 118.5L230 133.5L243 143.5L252 174.5L270 203.5L288 216.5M224.5 118.5L215 161.5L204 168L163.5 192M288 216.5L295.5 212L296.5 203V189.5L299 184.5L296.5 182L302 176L300.5 172.5L302 166.5L307.5 161.5V155.5L302 145M288 216.5L283 219.5L379 259.5L403 287L420 323.5L443 405L455 468L466 483.5L443 502.5M302 145L311 133.5L315 120.5L316 105.5M302 145L296.5 140.5L295.5 128.5L293.371 121.688M316 105.5L296.5 99.9304M316 105.5H311L293.371 121.688M296.5 99.9304L259.5 91.5H243L242.91 91.427M443 502.5L439.5 538L445.5 577.5L442 602.5L435 630.5L415.5 666L397 709M443 502.5L399 515.5V496L410 439.5L382 656L386 704.5" stroke="black"/>
</svg>
