<?xml version="1.0" encoding="utf-8"?>
<svg viewBox="0 0 500 500" xmlns="http://www.w3.org/2000/svg">
  <path d="M 0.557 -0.419 L 21.358 12.658 C 42.16 25.981 83.763 51.766 125.366 61.773 C 166.969 71.411 208.572 65.272 250.175 55.265 C 291.778 45.626 333.381 32.12 374.983 35.62 C 416.589 38.873 458.189 58.519 478.991 68.342 L 499.793 78.165 L 499.793 97.811 L 478.991 97.811 C 458.189 97.811 416.589 97.811 374.983 97.811 C 333.381 97.811 291.778 97.811 250.175 97.811 C 208.572 97.811 166.969 97.811 125.366 97.811 C 83.763 97.811 42.16 97.811 21.358 97.811 L 0.557 97.811 L 0.557 -0.419 Z" style="" transform="matrix(1, 0, 0, 1, 0, -1.4210854715202004e-14)"/>
</svg>