<?xml version="1.0" encoding="utf-8"?>
<svg viewBox="0 0 500 500" xmlns="http://www.w3.org/2000/svg">
  <path d="M -621.673 142.096 L -558.715 163.396 C -495.756 185.096 -369.84 227.096 -243.923 243.396 C -118.006 259.096 7.91 249.096 133.827 232.796 C 259.744 217.096 385.657 195.096 511.577 200.796 C 637.497 206.096 763.407 238.096 826.367 254.096 L 889.327 270.096 L 889.327 302.096 L 826.367 302.096 C 763.407 302.096 637.497 302.096 511.577 302.096 C 385.657 302.096 259.744 302.096 133.827 302.096 C 7.91 302.096 -118.006 302.096 -243.923 302.096 C -369.84 302.096 -495.756 302.096 -558.715 302.096 L -621.673 302.096 L -621.673 142.096 Z" style=""/>
</svg>